<svg width="27" height="27" viewBox="0 0 27 27" fill="none" xmlns="http://www.w3.org/2000/svg">
<path d="M13.3333 26.6667C5.96933 26.6667 0 20.6973 0 13.3333C0 5.96933 5.96933 0 13.3333 0C20.6973 0 26.6667 5.96933 26.6667 13.3333C26.6667 20.6973 20.6973 26.6667 13.3333 26.6667ZM13.3333 24C16.1623 24 18.8754 22.8762 20.8758 20.8758C22.8762 18.8754 24 16.1623 24 13.3333C24 10.5044 22.8762 7.79125 20.8758 5.79086C18.8754 3.79047 16.1623 2.66667 13.3333 2.66667C10.5044 2.66667 7.79125 3.79047 5.79086 5.79086C3.79047 7.79125 2.66667 10.5044 2.66667 13.3333C2.66667 16.1623 3.79047 18.8754 5.79086 20.8758C7.79125 22.8762 10.5044 24 13.3333 24V24ZM12.004 18.6667L6.34667 13.0093L8.232 11.124L12.004 14.896L19.5453 7.35333L21.432 9.23867L12.004 18.6667Z" fill="#4DA66B"/>
</svg>
