<svg width="32" height="32" viewBox="0 0 32 32" fill="none" xmlns="http://www.w3.org/2000/svg">
<rect width="32" height="32" rx="8" fill="#E6F7EC"/>
<path d="M7.86925 11.7117L15.5751 7.09166C15.7046 7.01395 15.8528 6.9729 16.0038 6.9729C16.1549 6.9729 16.3031 7.01395 16.4326 7.09166L24.1309 11.7125C24.1927 11.7495 24.2438 11.8019 24.2793 11.8645C24.3148 11.9272 24.3334 11.998 24.3334 12.07V22.6667C24.3334 22.8877 24.2456 23.0996 24.0893 23.2559C23.9331 23.4122 23.7211 23.5 23.5001 23.5H8.50008C8.27907 23.5 8.06711 23.4122 7.91083 23.2559C7.75455 23.0996 7.66675 22.8877 7.66675 22.6667V12.0692C7.66673 11.9972 7.68538 11.9264 7.72087 11.8637C7.75636 11.8011 7.80748 11.7487 7.86925 11.7117ZM9.33341 12.7775V21.8333H22.6667V12.7767L16.0034 8.77666L9.33341 12.7767V12.7775ZM16.0501 17.415L20.4634 13.6958L21.5367 14.9708L16.0617 19.585L10.4701 14.9767L11.5301 13.69L16.0501 17.415V17.415Z" fill="#289B4F"/>
</svg>
