<svg width="28" height="21" viewBox="0 0 28 21" fill="none" xmlns="http://www.w3.org/2000/svg">
<g clip-path="url(#clip0_762_681)">
<mask id="mask0_762_681" style="mask-type:luminance" maskUnits="userSpaceOnUse" x="0" y="0" width="29" height="21">
<path d="M0.00311279 0H28.0004V21H0.00311279V0Z" fill="white"/>
</mask>
<g mask="url(#mask0_762_681)">
<path fill-rule="evenodd" clip-rule="evenodd" d="M0.00311279 0H42.0031V7.00137H0.00311279V0Z" fill="#191919"/>
<path fill-rule="evenodd" clip-rule="evenodd" d="M0.00274658 7.00134H42.0027V13.9986H0.00274658V7.00134Z" fill="white"/>
<path fill-rule="evenodd" clip-rule="evenodd" d="M0.00274658 13.9987H42.0027V21H0.00274658V13.9987Z" fill="#009900"/>
<path fill-rule="evenodd" clip-rule="evenodd" d="M0.00311279 21L21.0031 10.5L0.00311279 0V21Z" fill="#FF0000"/>
<path fill-rule="evenodd" clip-rule="evenodd" d="M5.83927 11.8535L6.07306 10.8322H5.02716L5.97052 10.3811L5.31837 9.56486L6.26173 10.016L6.49142 8.99884L6.72521 10.0201L7.66447 9.56486L7.00822 10.3811L7.95157 10.8322H6.90978L7.14357 11.8535L6.49142 11.0332L5.83927 11.8535Z" fill="white"/>
</g>
</g>
<defs>
<clipPath id="clip0_762_681">
<rect width="28" height="21" fill="white"/>
</clipPath>
</defs>
</svg>
