<svg width="32" height="32" viewBox="0 0 32 32" fill="none" xmlns="http://www.w3.org/2000/svg">
<rect width="32" height="32" rx="8" fill="#FFD6D6"/>
<path d="M11 12.6667V11.8334C11 10.5073 11.5268 9.23552 12.4645 8.29784C13.4021 7.36016 14.6739 6.83337 16 6.83337C17.3261 6.83337 18.5979 7.36016 19.5355 8.29784C20.4732 9.23552 21 10.5073 21 11.8334V12.6667H22.6667C22.8877 12.6667 23.0996 12.7545 23.2559 12.9108C23.4122 13.0671 23.5 13.279 23.5 13.5V23.5C23.5 23.7211 23.4122 23.933 23.2559 24.0893C23.0996 24.2456 22.8877 24.3334 22.6667 24.3334H9.33333C9.11232 24.3334 8.90036 24.2456 8.74408 24.0893C8.5878 23.933 8.5 23.7211 8.5 23.5V13.5C8.5 13.279 8.5878 13.0671 8.74408 12.9108C8.90036 12.7545 9.11232 12.6667 9.33333 12.6667H11ZM21.8333 14.3334H10.1667V22.6667H21.8333V14.3334ZM15.1667 19.11C14.8489 18.9266 14.6006 18.6434 14.4602 18.3045C14.3198 17.9655 14.2952 17.5897 14.3901 17.2353C14.4851 16.8809 14.6943 16.5678 14.9854 16.3444C15.2765 16.1211 15.6331 16 16 16C16.3669 16 16.7235 16.1211 17.0146 16.3444C17.3057 16.5678 17.5149 16.8809 17.6099 17.2353C17.7048 17.5897 17.6802 17.9655 17.5398 18.3045C17.3994 18.6434 17.1511 18.9266 16.8333 19.11V21H15.1667V19.11ZM12.6667 12.6667H19.3333V11.8334C19.3333 10.9493 18.9821 10.1015 18.357 9.47635C17.7319 8.85123 16.8841 8.50004 16 8.50004C15.1159 8.50004 14.2681 8.85123 13.643 9.47635C13.0179 10.1015 12.6667 10.9493 12.6667 11.8334V12.6667Z" fill="#B83232"/>
</svg>
