<svg width="32" height="32" viewBox="0 0 32 32" fill="none" xmlns="http://www.w3.org/2000/svg">
<rect width="32" height="32" rx="8" fill="#C9EBE5"/>
<path d="M11.8334 9.33329V22.6666H20.1667V9.33329H11.8334ZM11.0001 7.66663H21.0001C21.2211 7.66663 21.4331 7.75442 21.5893 7.9107C21.7456 8.06698 21.8334 8.27895 21.8334 8.49996V23.5C21.8334 23.721 21.7456 23.9329 21.5893 24.0892C21.4331 24.2455 21.2211 24.3333 21.0001 24.3333H11.0001C10.7791 24.3333 10.5671 24.2455 10.4108 24.0892C10.2545 23.9329 10.1667 23.721 10.1667 23.5V8.49996C10.1667 8.27895 10.2545 8.06698 10.4108 7.9107C10.5671 7.75442 10.7791 7.66663 11.0001 7.66663ZM16.0001 20.1666C16.2211 20.1666 16.4331 20.2544 16.5893 20.4107C16.7456 20.567 16.8334 20.7789 16.8334 21C16.8334 21.221 16.7456 21.4329 16.5893 21.5892C16.4331 21.7455 16.2211 21.8333 16.0001 21.8333C15.7791 21.8333 15.5671 21.7455 15.4108 21.5892C15.2545 21.4329 15.1667 21.221 15.1667 21C15.1667 20.7789 15.2545 20.567 15.4108 20.4107C15.5671 20.2544 15.7791 20.1666 16.0001 20.1666V20.1666Z" fill="#2A917E"/>
</svg>
