<svg width="32" height="32" viewBox="0 0 32 32" fill="none" xmlns="http://www.w3.org/2000/svg">
<rect width="32" height="32" rx="8" fill="#E6DDFF"/>
<path d="M16 20.1666C19.0517 20.1666 21.7209 21.4791 23.1725 23.4375L21.6375 24.1633C20.4559 22.7633 18.3725 21.8333 16 21.8333C13.6275 21.8333 11.5442 22.7633 10.3625 24.1633L8.82837 23.4366C10.28 21.4783 12.9484 20.1666 16 20.1666ZM16 7.66663C17.1051 7.66663 18.1649 8.10561 18.9463 8.88701C19.7277 9.66842 20.1667 10.7282 20.1667 11.8333V14.3333C20.1666 15.407 19.7521 16.4393 19.0095 17.2148C18.2669 17.9903 17.2536 18.4492 16.1809 18.4958L16 18.5C14.895 18.5 13.8352 18.061 13.0538 17.2796C12.2724 16.4982 11.8334 15.4384 11.8334 14.3333V11.8333C11.8334 10.7596 12.248 9.72732 12.9906 8.95181C13.7332 8.1763 14.7465 7.71739 15.8192 7.67079L16 7.66663ZM16 9.33329C15.3624 9.33326 14.7488 9.5769 14.2848 10.0144C13.8209 10.4518 13.5416 11.05 13.5042 11.6866L13.5 11.8333V14.3333C13.4994 14.984 13.7526 15.6094 14.2057 16.0765C14.6588 16.5435 15.2762 16.8155 15.9267 16.8346C16.5771 16.8537 17.2094 16.6184 17.6892 16.1787C18.1689 15.7391 18.4583 15.1296 18.4959 14.48L18.5 14.3333V11.8333C18.5 11.1703 18.2366 10.5344 17.7678 10.0655C17.299 9.59668 16.6631 9.33329 16 9.33329V9.33329Z" fill="#5732BF"/>
</svg>
